<?xml version="1.0" encoding="UTF-8"?>
<svg id="Calque_1" data-name="Calque 1" xmlns="http://www.w3.org/2000/svg" viewBox="0 0 80 80">
  <defs>
    <style>
      .cls-1 {
        fill: #b7536c;
        stroke-width: 0px;
      }
    </style>
  </defs>
  <path class="cls-1" d="m40,0C17.94,0,0,17.94,0,40s17.94,40,40,40,40-17.94,40-40S62.06,0,40,0Zm0,77.8c-9.57,0-18.69-3.6-25.71-10.13,4.46-10.24,14.52-16.84,25.71-16.84s21.25,6.6,25.71,16.84c-7.02,6.54-16.14,10.13-25.71,10.13Zm27.38-11.77c-4.96-10.59-15.65-17.41-27.38-17.41s-22.42,6.81-27.38,17.41c-6.72-7.06-10.42-16.28-10.42-26.03C2.2,19.16,19.16,2.2,40,2.2s37.8,16.96,37.8,37.8c0,9.75-3.7,18.97-10.42,26.03Z"/>
  <path class="cls-1" d="m40,16.53c-8.65,0-15.69,7.04-15.69,15.69s7.04,15.69,15.69,15.69,15.69-7.04,15.69-15.69-7.04-15.69-15.69-15.69Zm0,29.17c-7.44,0-13.49-6.05-13.49-13.49s6.05-13.49,13.49-13.49,13.49,6.05,13.49,13.49-6.05,13.49-13.49,13.49Z"/>
</svg>