<?xml version="1.0" encoding="UTF-8"?>
<svg id="Calque_1" data-name="Calque 1" xmlns="http://www.w3.org/2000/svg" viewBox="0 0 93.75 93.75">
  <defs>
    <style>
      .cls-1 {
        fill: #b0596b;
        stroke-width: 0px;
      }
    </style>
  </defs>
  <path class="cls-1" d="m38.28,18.75h1.56c1.72,0,3.12-1.41,3.12-3.12s-1.41-3.12-3.12-3.12h-1.56c-1.72,0-3.12,1.41-3.12,3.12s1.41,3.12,3.12,3.12Z"/>
  <path class="cls-1" d="m53.91,18.75h1.56c1.72,0,3.12-1.41,3.12-3.12s-1.41-3.12-3.12-3.12h-1.56c-1.72,0-3.12,1.41-3.12,3.12s1.41,3.12,3.12,3.12Z"/>
  <path class="cls-1" d="m38.28,31.25h1.56c1.72,0,3.12-1.41,3.12-3.12s-1.41-3.12-3.12-3.12h-1.56c-1.72,0-3.12,1.41-3.12,3.12s1.41,3.12,3.12,3.12Z"/>
  <path class="cls-1" d="m53.91,31.25h1.56c1.72,0,3.12-1.41,3.12-3.12s-1.41-3.12-3.12-3.12h-1.56c-1.72,0-3.12,1.41-3.12,3.12s1.41,3.12,3.12,3.12Z"/>
  <path class="cls-1" d="m38.28,43.75h1.56c1.72,0,3.12-1.41,3.12-3.12s-1.41-3.12-3.12-3.12h-1.56c-1.72,0-3.12,1.41-3.12,3.12s1.41,3.12,3.12,3.12Z"/>
  <path class="cls-1" d="m53.91,43.75h1.56c1.72,0,3.12-1.41,3.12-3.12s-1.41-3.12-3.12-3.12h-1.56c-1.72,0-3.12,1.41-3.12,3.12s1.41,3.12,3.12,3.12Z"/>
  <path class="cls-1" d="m90.62,87.5h-3.12v-50c0-1.31-.81-2.5-2.06-2.94l-15.12-5.5V3.12c0-1.72-1.41-3.12-3.12-3.12H26.56c-1.72,0-3.12,1.41-3.12,3.12v10.31l-15.12,5.5c-1.25.44-2.06,1.62-2.06,2.94v65.62h-3.12c-1.72,0-3.12,1.41-3.12,3.12s1.41,3.12,3.12,3.12h87.5c1.72,0,3.12-1.41,3.12-3.12s-1.41-3.12-3.12-3.12h0Zm-9.38-47.81v47.81h-10.94v-9.38h5.47c1.72,0,3.12-1.41,3.12-3.12s-1.41-3.12-3.12-3.12h-5.47v-6.25h5.47c1.72,0,3.12-1.41,3.12-3.12s-1.41-3.12-3.12-3.12h-5.47v-6.25h5.47c1.72,0,3.12-1.41,3.12-3.12s-1.41-3.12-3.12-3.12h-5.47v-11.16l10.94,3.97ZM29.69,6.25h34.38v81.25h-6.25v-20.31c0-4.31-3.5-7.81-7.81-7.81h-6.25c-4.31,0-7.81,3.5-7.81,7.81v20.31h-6.25V6.25Zm21.88,81.25h-9.38v-20.31c0-.88.69-1.56,1.56-1.56h6.25c.88,0,1.56.69,1.56,1.56v20.31ZM12.5,24.06l10.94-3.97v11.16h-5.47c-1.72,0-3.12,1.41-3.12,3.12s1.41,3.12,3.12,3.12h5.47v6.25h-5.47c-1.72,0-3.12,1.41-3.12,3.12s1.41,3.12,3.12,3.12h5.47v6.25h-5.47c-1.72,0-3.12,1.41-3.12,3.12s1.41,3.12,3.12,3.12h5.47v25h-10.94V24.06Z"/>
</svg>