<?xml version="1.0" encoding="UTF-8"?>
<svg id="Calque_1" data-name="Calque 1" xmlns="http://www.w3.org/2000/svg" viewBox="0 0 90.62 90.61">
  <defs>
    <style>
      .cls-1 {
        fill: #b0596b;
        stroke-width: 0px;
      }
    </style>
  </defs>
  <path class="cls-1" d="m76.02,65.75c3.38,3.38,3.38,8.87,0,12.24l-7.01,7.01c-3.7,3.7-8.45,5.62-13.32,5.62-2.94,0-5.92-.7-8.73-2.14-8.89-4.54-17.79-11.14-25.74-19.09-1.93-1.93-3.79-3.93-5.55-5.96-1.02-1.18-.9-2.97.28-3.99,1.18-1.02,2.97-.9,3.99.28,1.68,1.93,3.45,3.84,5.28,5.66,7.54,7.54,15.94,13.78,24.31,18.06,5.23,2.68,11.31,1.71,15.47-2.44l7.01-7.01c1.17-1.17,1.17-3.07,0-4.23l-8.8-8.8c-1.17-1.17-3.07-1.17-4.23,0l-7.51,7.51c-.61.61-1.47.91-2.33.81-11.41-1.32-26.48-16.4-27.81-27.81-.1-.86.2-1.71.81-2.33l7.51-7.51c1.17-1.17,1.17-3.07,0-4.23l-8.8-8.8c-1.17-1.17-3.07-1.17-4.23,0l-7.01,7.01c-4.16,4.16-5.12,10.23-2.44,15.47,1.82,3.57,4.02,7.18,6.54,10.73.91,1.28.6,3.04-.67,3.95-1.28.9-3.04.6-3.95-.67-2.67-3.77-5.01-7.61-6.96-11.43-3.81-7.46-2.45-16.12,3.48-22.04l7.01-7.01c3.38-3.38,8.87-3.38,12.24,0l8.8,8.8c1.63,1.63,2.53,3.8,2.53,6.12s-.9,4.49-2.53,6.12l-6.47,6.47c1.93,8.29,13.03,19.39,21.31,21.31l6.47-6.47c3.38-3.38,8.87-3.38,12.24,0l8.8,8.8h0Zm14.6-40.69c0,13.82-11.24,25.06-25.06,25.06s-25.06-11.24-25.06-25.06S51.75,0,65.57,0s25.06,11.24,25.06,25.06Zm-44.45,0c0,3.53.95,6.84,2.6,9.69,1.11-2.18,2.64-4.16,4.52-5.78,1.29-1.11,2.71-2.03,4.22-2.75-1.49-1.8-2.39-4.12-2.39-6.64,0-5.76,4.68-10.44,10.44-10.44s10.44,4.68,10.44,10.44c0,2.52-.9,4.84-2.39,6.64,1.52.72,2.94,1.64,4.22,2.75,1.89,1.62,3.41,3.59,4.52,5.78,1.65-2.85,2.6-6.16,2.6-9.69,0-10.69-8.7-19.4-19.39-19.4s-19.4,8.7-19.4,19.4h0Zm24.17-5.48c0-2.64-2.14-4.78-4.78-4.78s-4.78,2.14-4.78,4.78,2.14,4.78,4.78,4.78,4.78-2.14,4.78-4.78Zm-4.78,24.87c4.84,0,9.27-1.79,12.68-4.73-1.54-5.67-6.66-9.65-12.68-9.65s-11.13,3.98-12.68,9.65c3.4,2.95,7.84,4.73,12.68,4.73Z"/>
</svg>