<?xml version="1.0" encoding="UTF-8"?>
<svg id="Calque_1" data-name="Calque 1" xmlns="http://www.w3.org/2000/svg" viewBox="0 0 127.5 104.25">
  <defs>
    <style>
      .cls-1 {
        fill: none;
      }

      .cls-1, .cls-2 {
        stroke-width: 0px;
      }

      .cls-2 {
        fill: #b8536c;
      }
    </style>
  </defs>
  <path class="cls-1" d="m0,104.25V0h127.5v104.25H0Zm48.46-3.8c8.6,0,17.21-.05,25.81.02,5.33.04,10.03-1.61,14.24-4.8,2.34-1.77,4.69-3.55,7.03-5.32,4.62-3.49,9.26-6.95,13.86-10.47,3.12-2.39,3.74-6.81,1.44-9.78-2.4-3.09-6.38-3.56-9.63-1.12-6.3,4.74-12.57,9.5-18.89,14.21-.55.41-1.28.79-1.94.79-6.3.06-12.61.05-18.91.02-1.98-.01-3.23-1.24-3.17-2.92.06-1.64,1.29-2.66,3.25-2.66,4.17,0,8.35,0,12.52,0,3.36,0,5.76-2.3,5.8-5.51.04-3.13-2.42-5.47-5.79-5.47-8.82,0-17.63,0-26.45,0-4.92,0-9.27,1.61-13.1,4.65-1.47,1.16-3,2.27-4.32,3.59-2.18,2.18-4.63,3.33-7.76,2.8-.5-.09-1.02-.01-1.53-.01-3.47.02-5.64,2.18-5.66,5.68-.02,3.45-.01,6.9,0,10.35,0,3.96,2.01,5.97,5.97,5.97,9.07,0,18.15,0,27.22,0Zm15.28-80.21c-1.04-1.08-1.93-1.99-2.81-2.9-2.97-3.07-6.57-4.56-10.84-3.92-5.04.76-8.47,3.7-10.15,8.45-1.8,5.08-.87,9.82,2.8,13.77,5.54,5.95,11.22,11.77,16.88,17.61,2.56,2.64,5.62,2.61,8.16-.02,5.56-5.75,11.12-11.51,16.66-17.29,3.12-3.25,4.43-7.14,3.7-11.59-.83-5.07-3.64-8.72-8.54-10.39-4.89-1.67-9.22-.45-12.87,3.19-.96.96-1.89,1.95-2.99,3.08Z"/>
  <path class="cls-2" d="m48.46,100.45c-9.07,0-18.15,0-27.22,0-3.96,0-5.96-2.01-5.97-5.97,0-3.45-.01-6.9,0-10.35.02-3.5,2.19-5.66,5.66-5.68.51,0,1.03-.07,1.53.01,3.13.54,5.58-.61,7.76-2.8,1.32-1.32,2.85-2.42,4.32-3.59,3.84-3.03,8.18-4.65,13.1-4.65,8.82,0,17.63,0,26.45,0,3.37,0,5.84,2.34,5.79,5.47-.04,3.21-2.44,5.5-5.8,5.51-4.17.01-8.35,0-12.52,0-1.96,0-3.19,1.02-3.25,2.66-.06,1.68,1.19,2.91,3.17,2.92,6.3.03,12.61.04,18.91-.02.65,0,1.39-.38,1.94-.79,6.31-4.71,12.59-9.47,18.89-14.21,3.25-2.45,7.23-1.97,9.63,1.12,2.3,2.97,1.69,7.39-1.44,9.78-4.6,3.52-9.24,6.98-13.86,10.47-2.35,1.77-4.69,3.54-7.03,5.32-4.21,3.19-8.91,4.84-14.24,4.8-8.6-.07-17.21-.02-25.81-.02Z"/>
  <path class="cls-2" d="m63.74,20.24c1.1-1.13,2.03-2.12,2.99-3.08,3.65-3.64,7.98-4.86,12.87-3.19,4.91,1.67,7.71,5.32,8.54,10.39.73,4.45-.58,8.34-3.7,11.59-5.54,5.77-11.09,11.53-16.66,17.29-2.54,2.63-5.6,2.66-8.16.02-5.66-5.84-11.34-11.65-16.88-17.61-3.68-3.95-4.6-8.69-2.8-13.77,1.68-4.76,5.11-7.69,10.15-8.45,4.27-.64,7.87.85,10.84,3.92.88.91,1.77,1.82,2.81,2.9Z"/>
</svg>