<?xml version="1.0" encoding="UTF-8"?>
<svg id="Calque_1" data-name="Calque 1" xmlns="http://www.w3.org/2000/svg" viewBox="0 0 97.37 85.9">
  <defs>
    <style>
      .cls-1 {
        fill: #b0596b;
        stroke-width: 0px;
      }
    </style>
  </defs>
  <path class="cls-1" d="m13.1,70.4h34.1c1.4,0,2.5,1.1,2.5,2.5s-1.1,2.5-2.5,2.5H13.1c-1.4,0-2.5-1.1-2.5-2.5s1.2-2.5,2.5-2.5Zm55.2-52.4v-7.4c0-5.9-4.7-10.6-10.6-10.6H23c-.6,0-1.2.1-1.8.3-.6.2-1.1.6-1.5,1L1.5,18.8c-.5.4-.8,1-1.1,1.6s-.4,1.2-.4,1.9v53c0,5.9,4.7,10.6,10.6,10.6h47c5.9,0,10.6-4.7,10.6-10.6v-5.7c-1.6.7-3.3,1.3-5,1.7v4c0,3.1-2.5,5.6-5.6,5.6H10.7c-3.1,0-5.6-2.5-5.6-5.6V23.7h8.9c5.8,0,10.6-4.8,10.6-10.6V5h33.1c3.1,0,5.6,2.5,5.6,5.6v5.7c1.7.4,3.4,1,5,1.7Zm-31.3,5.8c1.3-1.3,2.7-2.4,4.1-3.4h-9.1c-1.4,0-2.5,1.1-2.5,2.5s1.1,2.5,2.5,2.5h3.5c.5-.5.9-1.1,1.5-1.6Zm-2.9,36.6H13.3c-1.4,0-2.5,1.1-2.5,2.5s1.1,2.5,2.5,2.5h25.5c-.7-.5-1.3-1.1-1.9-1.7-1-1.1-1.9-2.2-2.8-3.3Zm-23.3-7.5c0,1.4,1.1,2.5,2.5,2.5h17.9c-.7-1.6-1.3-3.3-1.7-5H13.3c-1.3,0-2.5,1.1-2.5,2.5h0Zm2.5-12.5c-1.4,0-2.5,1.1-2.5,2.5s1.1,2.5,2.5,2.5h15.4c0-.6-.1-1.1-.1-1.7,0-1.1.1-2.2.2-3.3h-15.5Zm-2.5-7.5c0,1.4,1.1,2.5,2.5,2.5h16.6c.5-1.7,1.2-3.4,2.1-5H13.3c-1.3,0-2.5,1.1-2.5,2.5Zm85.3,43.8c1.7,1.7,1.7,4.5,0,6.2-.9.9-2,1.3-3.1,1.3s-2.2-.4-3.1-1.3l-17.4-17.3.9-.9-2.5-2.5c-4.1,3.1-9.1,4.7-14,4.7-5.9,0-11.9-2.3-16.4-6.8-9.1-9.1-9.1-23.7,0-32.8,4.5-4.5,10.5-6.8,16.4-6.8s11.9,2.3,16.4,6.8c8.3,8.3,9,21.3,2.1,30.4l2.5,2.5.9-.9,17.3,17.4Zm-27.1-45.1c-3.3-3.3-7.7-5-12.1-5s-8.8,1.7-12.1,5c-6.7,6.7-6.7,17.5,0,24.2,3.3,3.3,7.7,5,12.1,5s8.8-1.7,12.1-5c6.7-6.6,6.7-17.5,0-24.2Zm-11.3,6.5c1.7,0,3.2-1.4,3.2-3.2s-1.4-3.2-3.2-3.2-3.2,1.4-3.2,3.2c0,1.7,1.4,3.1,3.2,3.2Zm3.8,14.4c-.3.1-.6.3-.9.5-.4.1-.8.3-1.2.3-.5.1-.8-.2-1-.7-.1-.4-.1-.7-.1-1.1.1-.8.2-1.5.4-2.3.4-2.3.8-4.6,1.2-6.8.1-.6.2-1.2.2-1.9s-.5-1.1-1.2-1.1h-6c-.2,0-.5,0-.7.1-.5.1-.7.3-.7.7,0,.3.1.6.6.8.3.1.7.1,1.1.2.8.1,1.1.4,1.1,1.2v.4c-.3,2-.7,4-1,6-.2,1.1-.4,2.3-.5,3.4-.2,1.7,1.4,3.3,2.7,3.5.8.1,1.6.1,2.3.1,1.7,0,3.1-.7,4.2-1.9.2-.2.4-.5.4-.8,0-.4-.4-.7-.9-.6Z"/>
</svg>