<?xml version="1.0" encoding="UTF-8"?>
<svg id="Calque_1" data-name="Calque 1" xmlns="http://www.w3.org/2000/svg" xmlns:xlink="http://www.w3.org/1999/xlink" viewBox="0 0 525.58 530.01">
  <defs>
    <style>
      .cls-1 {
        fill: #b0596a;
      }

      .cls-1, .cls-2 {
        stroke: #b0596b;
      }

      .cls-1, .cls-2, .cls-3 {
        stroke-miterlimit: 10;
      }

      .cls-2, .cls-3 {
        fill: none;
        stroke-width: 2.5px;
      }

      .cls-4 {
        fill: url(#Dégradé_sans_nom_51);
      }

      .cls-5 {
        fill: url(#Dégradé_sans_nom_57);
      }

      .cls-6 {
        fill: url(#Dégradé_sans_nom_57-2);
      }

      .cls-3 {
        stroke: #829fa0;
      }
    </style>
    <linearGradient id="Dégradé_sans_nom_51" data-name="Dégradé sans nom 51" x1="29.82" y1="311.21" x2="364.05" y2="311.21" gradientUnits="userSpaceOnUse">
      <stop offset="0" stop-color="#b0596b"/>
      <stop offset=".9" stop-color="#f4c7c3"/>
      <stop offset="1" stop-color="#f3c4c1"/>
      <stop offset="1" stop-color="#fff"/>
    </linearGradient>
    <linearGradient id="Dégradé_sans_nom_57" data-name="Dégradé sans nom 57" x1="275.3" y1="249" x2="495.72" y2="249" gradientUnits="userSpaceOnUse">
      <stop offset="0" stop-color="#fff"/>
      <stop offset="0" stop-color="#f3c4c1"/>
      <stop offset=".1" stop-color="#f4c7c3"/>
      <stop offset="1" stop-color="#b0596b"/>
    </linearGradient>
    <linearGradient id="Dégradé_sans_nom_57-2" data-name="Dégradé sans nom 57" x1="392.74" y1="285.39" x2="430.14" y2="285.39" gradientTransform="translate(481.18 -123.86) rotate(57.66) scale(.81 1.28)" xlink:href="#Dégradé_sans_nom_57"/>
  </defs>
  <path class="cls-3" d="M213.53,10.53c-6.31,39.75-20.86,64.47-32.64,79.5-17.42,22.24-28.75,23.27-51.05,52.72-12.62,16.66-26.39,34.88-31.8,61.93-5.97,29.86,8.88,76.82,6.45,68.64"/>
  <path class="cls-3" d="M312.36,5.99c6.11,35.88,19.49,66.17,30.84,80.33,13.47,16.81,21.57,18.57,42.87,42.87,14.37,16.4,28.42,32.43,37.12,53.32,15.56,37.39,6.83,73.96,4.32,84.5-.65,2.71-3.4,12.93-1.7,6.46"/>
  <path class="cls-4" d="M77.36,123.49c-3.59-1.63-27.72,30.28-39.72,71.67-15.13,52.21-4.61,97.63.86,120.02,6.32,25.86,18.63,76.26,63.03,120.02,55.43,54.63,130.62,69.1,186.51,62.17,40.59-5.03,76.71-22.06,75.99-25.04-.55-2.25-21.53,5.69-49.22,1.73-6.44-.92-57.43-8.92-78.58-46.63-12.64-22.55-3.18-35.32-21.59-72.53-7.13-14.42-14.16-23.83-16.41-26.77-17.16-22.44-33.5-30.78-54.4-41.45-4.66-2.38-10.31-4.99-13.82-2.59-3.93,2.7-4.11,11-.86,16.41,2.95,4.91,7.57,5.48,14.68,8.63,0,0,14.93,6.62,26.77,20.72,3.16,3.77,15.33,18.26,11.23,25.9-4.34,8.09-25.8,6.46-40.58,1.73-50.53-16.18-69.53-83.47-72.53-94.12-9.94-35.21-6.67-65.76-5.18-78.58,4.3-36.92,16.75-59.97,13.82-61.31Z"/>
  <path class="cls-5" d="M366.63,43.19c3.25-3.35,48.66,25.18,81.17,69.08,37.17,50.2,43.62,101.8,45.76,120.89,2.48,22.05,7.34,70.67-16.41,123.48-18.23,40.53-44.16,63.2-50.08,68.21-10.36,8.78-22,18.65-40.58,25.04-26.74,9.19-48.76,4.63-79.44-1.73-23.36-4.84-28.13-9.35-30.22-13.82-5.13-10.97,3.65-26.49,12.09-35.4,17.17-18.13,35.06-11.12,67.35-23.31,31.47-11.89,50.93-32.32,60.44-42.31,11.1-11.66,32.19-34.35,41.45-70.81,8.41-33.1,2.66-60.22-.86-75.99-3.38-15.11-10.42-46.58-34.54-74.26-10.66-12.24-24.69-23.76-44.9-50.95-7.79-10.48-12.48-16.84-11.23-18.13Z"/>
  <path class="cls-6" d="M356.74,360.99c-57.16,14.43-73.74,32.22-73.74,32.22,0,0,23.54-29.38,60.66-52.89,37.11-23.5,73.74-32.22,73.74-32.22,0,0-3.49,38.46-60.66,52.89Z"/>
  <ellipse class="cls-2" cx="262.79" cy="265" rx="261.54" ry="263.75"/>
  <path class="cls-1" d="M327.56,213.2c0-23.36-19.22-41.99-37.75-50.81-6.42-3.06-12.71-6.52-18.27-9.08,16.15-4.27,34.29-18.38,34.29-40.67s-19.27-42.06-43.04-42.06-43.09,19.88-43.05,42.06c.04,18.13,12.83,34.52,31.4,40.24-4.96,2.51-10.62,5.99-16.51,8.76-19.96,9.39-36.8,29.03-36.61,51.56.23,26.16,23.45,52.94,56.71,56.74,0,.13-.08.24-.08.38v30.42h-30.42c-4.49,0-8.14,3.64-8.14,8.14s3.64,8.14,8.14,8.14h30.42v30.42c0,4.49,3.64,8.14,8.14,8.14s8.14-3.64,8.14-8.14v-30.42h30.42c4.49,0,8.14-3.64,8.14-8.14s-3.64-8.14-8.14-8.14h-30.42v-30.42c0-.13-.07-.24-.07-.37,31.96-3.51,56.71-27.56,56.71-56.75Z"/>
</svg>